<svg xmlns="http://www.w3.org/2000/svg" version="1.1" xmlns:xlink="http://www.w3.org/1999/xlink" xmlns:svgjs="http://svgjs.com/svgjs" width="1440" height="560" preserveAspectRatio="none" viewBox="0 0 1440 560"><g mask="url(&quot;#SvgjsMask1060&quot;)" fill="none"><rect width="1440" height="560" x="0" y="0" fill="#0e2a47"></rect><path d="M158.02 64.05L236.83 109.55L236.83 200.55L158.02 246.05L79.21 200.55L79.21 109.55zM79.21 200.55L158.02 246.05L158.02 337.05L79.21 382.55L0.4 337.05L0.4 246.05zM158.02 337.05L236.83 382.55L236.83 473.55L158.02 519.05L79.21 473.55L79.21 382.55zM79.21 473.55L158.02 519.05L158.02 610.05L79.21 655.55L0.4 610.05L0.4 519.05zM236.83 200.55L315.64 246.05L315.64 337.05L236.83 382.55L158.02 337.05L158.02 246.05zM236.83 473.55L315.64 519.05L315.64 610.05L236.83 655.55L158.02 610.05L158.02 519.05zM394.45 -72.45L473.26 -26.95L473.26 64.05L394.45 109.55L315.64 64.05L315.64 -26.95zM473.26 337.05L552.07 382.55L552.07 473.55L473.26 519.05L394.45 473.55L394.45 382.55zM394.45 473.55L473.26 519.05L473.26 610.05L394.45 655.55L315.64 610.05L315.64 519.05zM552.07 -72.45L630.88 -26.95L630.88 64.05L552.07 109.55L473.26 64.05L473.26 -26.95zM630.88 337.05L709.69 382.55L709.69 473.55L630.88 519.05L552.07 473.55L552.07 382.55zM552.07 473.55L630.88 519.05L630.88 610.05L552.07 655.55L473.26 610.05L473.26 519.05zM709.69 200.55L788.5 246.05L788.5 337.05L709.69 382.55L630.88 337.05L630.88 246.05zM709.69 473.55L788.5 519.05L788.5 610.05L709.69 655.55L630.88 610.05L630.88 519.05zM867.32 -72.45L946.13 -26.95L946.13 64.05L867.32 109.55L788.5 64.05L788.5 -26.95zM946.13 64.05L1024.94 109.55L1024.94 200.55L946.13 246.05L867.32 200.55L867.32 109.55zM867.32 473.55L946.13 519.05L946.13 610.05L867.32 655.55L788.5 610.05L788.5 519.05zM1024.94 200.55L1103.75 246.05L1103.75 337.05L1024.94 382.55L946.13 337.05L946.13 246.05zM1103.75 337.05L1182.56 382.55L1182.56 473.55L1103.75 519.05L1024.94 473.55L1024.94 382.55zM1182.56 200.55L1261.37 246.05L1261.37 337.05L1182.56 382.55L1103.75 337.05L1103.75 246.05zM1261.37 337.05L1340.18 382.55L1340.18 473.55L1261.37 519.05L1182.56 473.55L1182.56 382.55zM1182.56 473.55L1261.37 519.05L1261.37 610.05L1182.56 655.55L1103.75 610.05L1103.75 519.05zM1340.18 -72.45L1418.99 -26.95L1418.99 64.05L1340.18 109.55L1261.37 64.05L1261.37 -26.95zM1418.99 64.05L1497.8 109.55L1497.8 200.55L1418.99 246.05L1340.18 200.55L1340.18 109.55zM1340.18 200.55L1418.99 246.05L1418.99 337.05L1340.18 382.55L1261.37 337.05L1261.37 246.05zM1418.99 337.05L1497.8 382.55L1497.8 473.55L1418.99 519.05L1340.18 473.55L1340.18 382.55zM1340.18 473.55L1418.99 519.05L1418.99 610.05L1340.18 655.55L1261.37 610.05L1261.37 519.05zM1497.8 -72.45L1576.61 -26.95L1576.61 64.05L1497.8 109.55L1418.99 64.05L1418.99 -26.95zM1576.61 64.05L1655.42 109.55L1655.42 200.55L1576.61 246.05L1497.8 200.55L1497.8 109.55zM1576.61 337.05L1655.42 382.55L1655.42 473.55L1576.61 519.05L1497.8 473.55L1497.8 382.55zM1497.8 473.55L1576.61 519.05L1576.61 610.05L1497.8 655.55L1418.99 610.05L1418.99 519.05z" stroke="#03305d" stroke-width="2"></path><path d="M148.92 64.05 a9.1 9.1 0 1 0 18.2 0 a9.1 9.1 0 1 0 -18.2 0zM227.73 109.55 a9.1 9.1 0 1 0 18.2 0 a9.1 9.1 0 1 0 -18.2 0zM227.73 200.55 a9.1 9.1 0 1 0 18.2 0 a9.1 9.1 0 1 0 -18.2 0zM148.92 246.05 a9.1 9.1 0 1 0 18.2 0 a9.1 9.1 0 1 0 -18.2 0zM70.11 200.55 a9.1 9.1 0 1 0 18.2 0 a9.1 9.1 0 1 0 -18.2 0zM70.11 109.55 a9.1 9.1 0 1 0 18.2 0 a9.1 9.1 0 1 0 -18.2 0zM148.92 337.05 a9.1 9.1 0 1 0 18.2 0 a9.1 9.1 0 1 0 -18.2 0zM70.11 382.55 a9.1 9.1 0 1 0 18.2 0 a9.1 9.1 0 1 0 -18.2 0zM-8.7 337.05 a9.1 9.1 0 1 0 18.2 0 a9.1 9.1 0 1 0 -18.2 0zM-8.7 246.05 a9.1 9.1 0 1 0 18.2 0 a9.1 9.1 0 1 0 -18.2 0zM227.73 382.55 a9.1 9.1 0 1 0 18.2 0 a9.1 9.1 0 1 0 -18.2 0zM227.73 473.55 a9.1 9.1 0 1 0 18.2 0 a9.1 9.1 0 1 0 -18.2 0zM148.92 519.05 a9.1 9.1 0 1 0 18.2 0 a9.1 9.1 0 1 0 -18.2 0zM70.11 473.55 a9.1 9.1 0 1 0 18.2 0 a9.1 9.1 0 1 0 -18.2 0zM148.92 610.05 a9.1 9.1 0 1 0 18.2 0 a9.1 9.1 0 1 0 -18.2 0zM70.11 655.55 a9.1 9.1 0 1 0 18.2 0 a9.1 9.1 0 1 0 -18.2 0zM-8.7 610.05 a9.1 9.1 0 1 0 18.2 0 a9.1 9.1 0 1 0 -18.2 0zM-8.7 519.05 a9.1 9.1 0 1 0 18.2 0 a9.1 9.1 0 1 0 -18.2 0zM306.54 246.05 a9.1 9.1 0 1 0 18.2 0 a9.1 9.1 0 1 0 -18.2 0zM306.54 337.05 a9.1 9.1 0 1 0 18.2 0 a9.1 9.1 0 1 0 -18.2 0zM306.54 519.05 a9.1 9.1 0 1 0 18.2 0 a9.1 9.1 0 1 0 -18.2 0zM306.54 610.05 a9.1 9.1 0 1 0 18.2 0 a9.1 9.1 0 1 0 -18.2 0zM227.73 655.55 a9.1 9.1 0 1 0 18.2 0 a9.1 9.1 0 1 0 -18.2 0zM385.35 -72.45 a9.1 9.1 0 1 0 18.2 0 a9.1 9.1 0 1 0 -18.2 0zM464.16 -26.95 a9.1 9.1 0 1 0 18.2 0 a9.1 9.1 0 1 0 -18.2 0zM464.16 64.05 a9.1 9.1 0 1 0 18.2 0 a9.1 9.1 0 1 0 -18.2 0zM385.35 109.55 a9.1 9.1 0 1 0 18.2 0 a9.1 9.1 0 1 0 -18.2 0zM306.54 64.05 a9.1 9.1 0 1 0 18.2 0 a9.1 9.1 0 1 0 -18.2 0zM306.54 -26.95 a9.1 9.1 0 1 0 18.2 0 a9.1 9.1 0 1 0 -18.2 0zM464.16 337.05 a9.1 9.1 0 1 0 18.2 0 a9.1 9.1 0 1 0 -18.2 0zM542.97 382.55 a9.1 9.1 0 1 0 18.2 0 a9.1 9.1 0 1 0 -18.2 0zM542.97 473.55 a9.1 9.1 0 1 0 18.2 0 a9.1 9.1 0 1 0 -18.2 0zM464.16 519.05 a9.1 9.1 0 1 0 18.2 0 a9.1 9.1 0 1 0 -18.2 0zM385.35 473.55 a9.1 9.1 0 1 0 18.2 0 a9.1 9.1 0 1 0 -18.2 0zM385.35 382.55 a9.1 9.1 0 1 0 18.2 0 a9.1 9.1 0 1 0 -18.2 0zM464.16 610.05 a9.1 9.1 0 1 0 18.2 0 a9.1 9.1 0 1 0 -18.2 0zM385.35 655.55 a9.1 9.1 0 1 0 18.2 0 a9.1 9.1 0 1 0 -18.2 0zM542.97 -72.45 a9.1 9.1 0 1 0 18.2 0 a9.1 9.1 0 1 0 -18.2 0zM621.78 -26.95 a9.1 9.1 0 1 0 18.2 0 a9.1 9.1 0 1 0 -18.2 0zM621.78 64.05 a9.1 9.1 0 1 0 18.2 0 a9.1 9.1 0 1 0 -18.2 0zM542.97 109.55 a9.1 9.1 0 1 0 18.2 0 a9.1 9.1 0 1 0 -18.2 0zM621.78 337.05 a9.1 9.1 0 1 0 18.2 0 a9.1 9.1 0 1 0 -18.2 0zM700.59 382.55 a9.1 9.1 0 1 0 18.2 0 a9.1 9.1 0 1 0 -18.2 0zM700.59 473.55 a9.1 9.1 0 1 0 18.2 0 a9.1 9.1 0 1 0 -18.2 0zM621.78 519.05 a9.1 9.1 0 1 0 18.2 0 a9.1 9.1 0 1 0 -18.2 0zM621.78 610.05 a9.1 9.1 0 1 0 18.2 0 a9.1 9.1 0 1 0 -18.2 0zM542.97 655.55 a9.1 9.1 0 1 0 18.2 0 a9.1 9.1 0 1 0 -18.2 0zM700.59 200.55 a9.1 9.1 0 1 0 18.2 0 a9.1 9.1 0 1 0 -18.2 0zM779.4 246.05 a9.1 9.1 0 1 0 18.2 0 a9.1 9.1 0 1 0 -18.2 0zM779.4 337.05 a9.1 9.1 0 1 0 18.2 0 a9.1 9.1 0 1 0 -18.2 0zM621.78 246.05 a9.1 9.1 0 1 0 18.2 0 a9.1 9.1 0 1 0 -18.2 0zM779.4 519.05 a9.1 9.1 0 1 0 18.2 0 a9.1 9.1 0 1 0 -18.2 0zM779.4 610.05 a9.1 9.1 0 1 0 18.2 0 a9.1 9.1 0 1 0 -18.2 0zM700.59 655.55 a9.1 9.1 0 1 0 18.2 0 a9.1 9.1 0 1 0 -18.2 0zM858.22 -72.45 a9.1 9.1 0 1 0 18.2 0 a9.1 9.1 0 1 0 -18.2 0zM937.03 -26.95 a9.1 9.1 0 1 0 18.2 0 a9.1 9.1 0 1 0 -18.2 0zM937.03 64.05 a9.1 9.1 0 1 0 18.2 0 a9.1 9.1 0 1 0 -18.2 0zM858.22 109.55 a9.1 9.1 0 1 0 18.2 0 a9.1 9.1 0 1 0 -18.2 0zM779.4 64.05 a9.1 9.1 0 1 0 18.2 0 a9.1 9.1 0 1 0 -18.2 0zM779.4 -26.95 a9.1 9.1 0 1 0 18.2 0 a9.1 9.1 0 1 0 -18.2 0zM1015.84 109.55 a9.1 9.1 0 1 0 18.2 0 a9.1 9.1 0 1 0 -18.2 0zM1015.84 200.55 a9.1 9.1 0 1 0 18.2 0 a9.1 9.1 0 1 0 -18.2 0zM937.03 246.05 a9.1 9.1 0 1 0 18.2 0 a9.1 9.1 0 1 0 -18.2 0zM858.22 200.55 a9.1 9.1 0 1 0 18.2 0 a9.1 9.1 0 1 0 -18.2 0zM858.22 473.55 a9.1 9.1 0 1 0 18.2 0 a9.1 9.1 0 1 0 -18.2 0zM937.03 519.05 a9.1 9.1 0 1 0 18.2 0 a9.1 9.1 0 1 0 -18.2 0zM937.03 610.05 a9.1 9.1 0 1 0 18.2 0 a9.1 9.1 0 1 0 -18.2 0zM858.22 655.55 a9.1 9.1 0 1 0 18.2 0 a9.1 9.1 0 1 0 -18.2 0zM1094.65 246.05 a9.1 9.1 0 1 0 18.2 0 a9.1 9.1 0 1 0 -18.2 0zM1094.65 337.05 a9.1 9.1 0 1 0 18.2 0 a9.1 9.1 0 1 0 -18.2 0zM1015.84 382.55 a9.1 9.1 0 1 0 18.2 0 a9.1 9.1 0 1 0 -18.2 0zM937.03 337.05 a9.1 9.1 0 1 0 18.2 0 a9.1 9.1 0 1 0 -18.2 0zM1173.46 382.55 a9.1 9.1 0 1 0 18.2 0 a9.1 9.1 0 1 0 -18.2 0zM1173.46 473.55 a9.1 9.1 0 1 0 18.2 0 a9.1 9.1 0 1 0 -18.2 0zM1094.65 519.05 a9.1 9.1 0 1 0 18.2 0 a9.1 9.1 0 1 0 -18.2 0zM1015.84 473.55 a9.1 9.1 0 1 0 18.2 0 a9.1 9.1 0 1 0 -18.2 0zM1173.46 200.55 a9.1 9.1 0 1 0 18.2 0 a9.1 9.1 0 1 0 -18.2 0zM1252.27 246.05 a9.1 9.1 0 1 0 18.2 0 a9.1 9.1 0 1 0 -18.2 0zM1252.27 337.05 a9.1 9.1 0 1 0 18.2 0 a9.1 9.1 0 1 0 -18.2 0zM1331.08 382.55 a9.1 9.1 0 1 0 18.2 0 a9.1 9.1 0 1 0 -18.2 0zM1331.08 473.55 a9.1 9.1 0 1 0 18.2 0 a9.1 9.1 0 1 0 -18.2 0zM1252.27 519.05 a9.1 9.1 0 1 0 18.2 0 a9.1 9.1 0 1 0 -18.2 0zM1252.27 610.05 a9.1 9.1 0 1 0 18.2 0 a9.1 9.1 0 1 0 -18.2 0zM1173.46 655.55 a9.1 9.1 0 1 0 18.2 0 a9.1 9.1 0 1 0 -18.2 0zM1094.65 610.05 a9.1 9.1 0 1 0 18.2 0 a9.1 9.1 0 1 0 -18.2 0zM1331.08 -72.45 a9.1 9.1 0 1 0 18.2 0 a9.1 9.1 0 1 0 -18.2 0zM1409.89 -26.95 a9.1 9.1 0 1 0 18.2 0 a9.1 9.1 0 1 0 -18.2 0zM1409.89 64.05 a9.1 9.1 0 1 0 18.2 0 a9.1 9.1 0 1 0 -18.2 0zM1331.08 109.55 a9.1 9.1 0 1 0 18.2 0 a9.1 9.1 0 1 0 -18.2 0zM1252.27 64.05 a9.1 9.1 0 1 0 18.2 0 a9.1 9.1 0 1 0 -18.2 0zM1252.27 -26.95 a9.1 9.1 0 1 0 18.2 0 a9.1 9.1 0 1 0 -18.2 0zM1488.7 109.55 a9.1 9.1 0 1 0 18.2 0 a9.1 9.1 0 1 0 -18.2 0zM1488.7 200.55 a9.1 9.1 0 1 0 18.2 0 a9.1 9.1 0 1 0 -18.2 0zM1409.89 246.05 a9.1 9.1 0 1 0 18.2 0 a9.1 9.1 0 1 0 -18.2 0zM1331.08 200.55 a9.1 9.1 0 1 0 18.2 0 a9.1 9.1 0 1 0 -18.2 0zM1409.89 337.05 a9.1 9.1 0 1 0 18.2 0 a9.1 9.1 0 1 0 -18.2 0zM1488.7 382.55 a9.1 9.1 0 1 0 18.2 0 a9.1 9.1 0 1 0 -18.2 0zM1488.7 473.55 a9.1 9.1 0 1 0 18.2 0 a9.1 9.1 0 1 0 -18.2 0zM1409.89 519.05 a9.1 9.1 0 1 0 18.2 0 a9.1 9.1 0 1 0 -18.2 0zM1409.89 610.05 a9.1 9.1 0 1 0 18.2 0 a9.1 9.1 0 1 0 -18.2 0zM1331.08 655.55 a9.1 9.1 0 1 0 18.2 0 a9.1 9.1 0 1 0 -18.2 0zM1488.7 -72.45 a9.1 9.1 0 1 0 18.2 0 a9.1 9.1 0 1 0 -18.2 0zM1567.51 -26.95 a9.1 9.1 0 1 0 18.2 0 a9.1 9.1 0 1 0 -18.2 0zM1567.51 64.05 a9.1 9.1 0 1 0 18.2 0 a9.1 9.1 0 1 0 -18.2 0zM1646.32 109.55 a9.1 9.1 0 1 0 18.2 0 a9.1 9.1 0 1 0 -18.2 0zM1646.32 200.55 a9.1 9.1 0 1 0 18.2 0 a9.1 9.1 0 1 0 -18.2 0zM1567.51 246.05 a9.1 9.1 0 1 0 18.2 0 a9.1 9.1 0 1 0 -18.2 0zM1567.51 337.05 a9.1 9.1 0 1 0 18.2 0 a9.1 9.1 0 1 0 -18.2 0zM1646.32 382.55 a9.1 9.1 0 1 0 18.2 0 a9.1 9.1 0 1 0 -18.2 0zM1646.32 473.55 a9.1 9.1 0 1 0 18.2 0 a9.1 9.1 0 1 0 -18.2 0zM1567.51 519.05 a9.1 9.1 0 1 0 18.2 0 a9.1 9.1 0 1 0 -18.2 0zM1567.51 610.05 a9.1 9.1 0 1 0 18.2 0 a9.1 9.1 0 1 0 -18.2 0zM1488.7 655.55 a9.1 9.1 0 1 0 18.2 0 a9.1 9.1 0 1 0 -18.2 0z" fill="#03305d"></path><path d="M145.08 107.05L212.63 146.05L212.63 224.05L145.08 263.05L77.53 224.05L77.53 146.05zM77.53 224.05L145.08 263.05L145.08 341.05L77.53 380.05L9.98 341.05L9.98 263.05zM145.08 341.05L212.63 380.05L212.63 458.05L145.08 497.05L77.53 458.05L77.53 380.05zM212.63 -9.95L280.19 29.05L280.19 107.05L212.63 146.05L145.08 107.05L145.08 29.05zM280.19 107.05L347.74 146.05L347.74 224.05L280.19 263.05L212.63 224.05L212.63 146.05zM415.29 107.05L482.84 146.05L482.84 224.05L415.29 263.05L347.74 224.05L347.74 146.05zM347.74 458.05L415.29 497.05L415.29 575.05L347.74 614.05L280.19 575.05L280.19 497.05zM415.29 575.05L482.84 614.05L482.84 692.05L415.29 731.05L347.74 692.05L347.74 614.05zM482.84 224.05L550.39 263.05L550.39 341.05L482.84 380.05L415.29 341.05L415.29 263.05zM550.39 575.05L617.95 614.05L617.95 692.05L550.39 731.05L482.84 692.05L482.84 614.05zM685.5 575.05L753.05 614.05L753.05 692.05L685.5 731.05L617.95 692.05L617.95 614.05zM955.7 341.05L1023.26 380.05L1023.26 458.05L955.7 497.05L888.15 458.05L888.15 380.05zM955.7 575.05L1023.26 614.05L1023.26 692.05L955.7 731.05L888.15 692.05L888.15 614.05zM1090.81 107.05L1158.36 146.05L1158.36 224.05L1090.81 263.05L1023.26 224.05L1023.26 146.05zM1090.81 341.05L1158.36 380.05L1158.36 458.05L1090.81 497.05L1023.26 458.05L1023.26 380.05zM1023.26 458.05L1090.81 497.05L1090.81 575.05L1023.26 614.05L955.7 575.05L955.7 497.05zM1158.36 -9.95L1225.91 29.05L1225.91 107.05L1158.36 146.05L1090.81 107.05L1090.81 29.05zM1225.91 341.05L1293.46 380.05L1293.46 458.05L1225.91 497.05L1158.36 458.05L1158.36 380.05zM1225.91 575.05L1293.46 614.05L1293.46 692.05L1225.91 731.05L1158.36 692.05L1158.36 614.05zM1293.46 224.05L1361.02 263.05L1361.02 341.05L1293.46 380.05L1225.91 341.05L1225.91 263.05zM1293.46 458.05L1361.02 497.05L1361.02 575.05L1293.46 614.05L1225.91 575.05L1225.91 497.05zM1361.02 575.05L1428.57 614.05L1428.57 692.05L1361.02 731.05L1293.46 692.05L1293.46 614.05zM1428.57 224.05L1496.12 263.05L1496.12 341.05L1428.57 380.05L1361.02 341.05L1361.02 263.05z" stroke="rgba(6, 80, 156, 0.93)" stroke-width="2"></path></g><defs><mask id="SvgjsMask1060"><rect width="1440" height="560" fill="#ffffff"></rect></mask></defs></svg>